<svg id="Layer_1" data-name="Layer 1" xmlns="http://www.w3.org/2000/svg" viewBox="0 0 952 531"><defs><style>.cls-1{fill:#28c;}.cls-2{fill:#fbfcfc;}.cls-3{fill:#fcfcfc;}.cls-4{fill:#fdfefe;}</style></defs><title>blue</title><rect class="cls-1" x="0.5" y="0.5" width="951" height="530"/><path d="M1101,1V530H151V1h950m1-1H150V531h952V0Z" transform="translate(-150)"/><path class="cls-2" d="M672.5,293.12v3.16q0,65.42,0,130.83a15.52,15.52,0,0,1-.22,3.2,5.49,5.49,0,0,1-5.84,4.47,5.7,5.7,0,0,1-5.47-5,19.25,19.25,0,0,1-.12-2.52q0-74.87,0-149.72a9.82,9.82,0,0,1,1.35-5.39c2.66-3.67,7.14-3.3,10,.62,5.52,7.56,11,15.17,16.43,22.75Q709,323.73,729.32,351.9c.39.56.82,1.09,1.38,1.83.49-.61.91-1.1,1.28-1.62q28.28-39.33,56.56-78.64a9.5,9.5,0,0,1,3.41-3.24c3.78-1.69,7.64.83,8.18,5.07a14.09,14.09,0,0,1,0,1.84V427.77c0,3.8-1.43,6.11-4.19,6.82a5.6,5.6,0,0,1-7.08-4.44,15.59,15.59,0,0,1-.16-3q0-65.66,0-131.29v-3.09l-11.24,15.58C764,327.17,750.27,345.86,737,364.85c-3.49,5-8.95,5.45-12.86-.08-16.52-23.36-33.4-46.45-50.15-69.64C673.66,294.64,673.29,294.17,672.5,293.12Z" transform="translate(-150)"/><path class="cls-3" d="M351.29,434.85c-35.48-.41-63.78-20.71-76.23-53.28-13.05-34.14-2.94-73.72,25.15-97.08,16.61-13.81,36-19.94,57.41-17.23,33.95,4.29,56.19,24,66.58,55.92,10.94,33.56,3.77,64.06-21.07,89.5A72.09,72.09,0,0,1,351.29,434.85ZM417,355.33c0-16.6-2.49-28.08-8-38.72-11.84-22.7-30.33-36.3-56.11-37.94-23.32-1.48-42.36,8.05-56.62,26.38-23,29.53-19.89,75.24,9.3,101.42,20.33,18.24,51.32,22.27,74.9,8.51C404.87,400.71,415.91,378.47,417,355.33Z" transform="translate(-150)"/><path class="cls-2" d="M914.34,266.6c12.92,0,24.8,3.79,36,9.9,5.11,2.78,10,6,14.94,9a5.3,5.3,0,0,1,1.92,7.57c-1.69,2.65-4.6,3.1-7.61,1.13-7.7-5-15.44-10-24.15-13.19-18.87-6.9-37-5.14-54,5.52C874.08,291.2,869,297.93,867.9,307c-.92,7.63,1.75,14,7.38,19.17,7.44,6.83,16.54,10.48,26.07,13,8.36,2.22,16.92,3.66,25.32,5.7,12.51,3,24.6,7.24,34.9,15.26,10.52,8.19,15.93,18.94,14.58,32.47-1.11,11.05-6.79,19.74-15.08,26.77-10.82,9.16-23.57,13.82-37.54,15.26-21.5,2.21-40.68-4.47-58.6-15.69-3.5-2.19-6.83-4.68-10.16-7.14-2.85-2.12-3.45-5.49-1.57-7.82,2.07-2.56,5-2.76,7.89-.46,11.16,8.77,23.41,15.42,37.27,18.78,17.73,4.3,34.72,2.57,50.55-6.95a36,36,0,0,0,13.45-13.59c6.57-12,3.59-25.25-7.64-33.71-8.09-6.1-17.43-9.58-27.11-12.08-8.82-2.27-17.8-3.92-26.64-6.13a86.22,86.22,0,0,1-26.4-11c-8.57-5.57-14.86-12.88-16.73-23.19-2.16-12,1.67-22.29,10-30.93,9.86-10.29,22.35-15.33,36.22-17.3C907.43,266.92,910.9,266.86,914.34,266.6Z" transform="translate(-150)"/><path class="cls-3" d="M556.45,434.7c-33.2-1.29-59.14-15.31-75.63-44.6-16.2-28.77-12.65-65,8.39-91.07,14.87-18.41,34.27-28.89,57.73-31.66,23.24-2.74,44.2,3.31,63,17,3,2.22,3.82,5.84,1.89,8.43-2.39,3.2-5.49,3.63-8.78,1.14C587.35,282.09,569.6,276.8,550,278.54c-34.31,3-61.54,28.31-66.68,61.42a70.76,70.76,0,0,0,38.58,74.68c24.4,12.18,48.86,11.81,72.82-1.65a92.5,92.5,0,0,0,7.88-5.55c2.16-1.53,4.44-2.09,6.88-.71,2.22,1.25,3.77,4,3.16,6.37a7.62,7.62,0,0,1-2.42,3.94,85.53,85.53,0,0,1-42.77,17.12c-1.9.22-3.81.43-5.73.52C560,434.77,558.21,434.7,556.45,434.7Z" transform="translate(-150)"/><path class="cls-4" d="M651.45,120.62a61.86,61.86,0,0,0,6.26-.78,5.85,5.85,0,0,0,2.75-1.71c6.39-6.71,12.66-13.55,19.11-20.21a89.32,89.32,0,0,1,9.27-8.45,17,17,0,0,1,14.94-3c3.08.73,5.92.07,8.87-.53a18.21,18.21,0,0,1,5.59-.44c2.19.23,3.21,1.74,3.34,4s-.74,4.33-1.55,6.38c-2.25,5.69-4.83,11.25-9.28,15.57a38.24,38.24,0,0,1-8.19,6.2,204.89,204.89,0,0,0-24,15.31,11.89,11.89,0,0,0-5,10.68c.05,1.58.33,3.16.48,4.74a25.24,25.24,0,0,1-1.17,8.88,34.9,34.9,0,0,0-.5,13.14c2.94-.34,5.88-.37,8.47-2.12a52,52,0,0,1,12.62-6.34,22.41,22.41,0,0,1,18.11,1.21A110.19,110.19,0,0,1,723,170.36c2,1.41,2.5,3.79,1.51,6.18a10.87,10.87,0,0,1-1.74,2.94c-5,5.66-11.09,9.21-18.84,9.42-1.19,0-2.38.13-3.57.18a20.34,20.34,0,0,1-6.52-.66c-6.89-1.94-13.35-.39-19.24,3.32a115.11,115.11,0,0,0-10.52,7.78c-3.69,2.94-7.44,5.76-12.05,7-2,.52-4.11.26-6.16.48-5.21.58-9.45-1.66-13.43-4.59-6.28-4.61-11-10.69-15.52-16.9a69.25,69.25,0,0,0-6.28-7.48c-4.22-4.29-9.55-5.5-15.43-5.13A38.09,38.09,0,0,1,579,170.56c-6.19-2.4-8.71-7.59-9.84-13.74A72.53,72.53,0,0,1,568,143.41c0-6.12-3.39-10.29-8.55-13.19a54.51,54.51,0,0,1-5.07-2.85c-3.84-2.73-5.61-6.69-6.09-11.27-.17-1.58-.09-3.18-.19-4.76-.33-5.42-.75-10.84-1-16.26a43.54,43.54,0,0,1,.17-6.46c.22-2.16,1.26-3,3.42-3.07,6.53-.3,11.8,2.47,16.34,6.87,3.59,3.48,5.79,7.85,7.76,12.36a46.21,46.21,0,0,0,7.35,11.43c2.4,2.81,5.59,2.53,7.66-.56a28.39,28.39,0,0,0,4.33-11.55A15.77,15.77,0,0,0,592,93.93c-2.16-4-4.41-7.87-6.24-12-4-8.88-2.52-17.35,2.73-25.26a59.71,59.71,0,0,1,6.12-7.62c2.32-2.48,5.13-2.5,7.63-.18a36.13,36.13,0,0,1,9.6,15.62c2,6.14,2.63,12.51,2.87,18.92a82.26,82.26,0,0,0,3.24,19.4c.61,2.11,2.6,3,4.48,3.83s3.25-.57,4.45-1.62a6.11,6.11,0,0,0,1.94-3.15c2-10.08,4-20.16,5.76-30.28,1.49-8.45,5.12-15.58,11.78-21.13,2.74-2.28,5.32-4.76,7.94-7.18,2.44-2.24,4.07-2.21,6.52,0a14.07,14.07,0,0,1,3.64,6.2,56.43,56.43,0,0,1,3.32,20.4,42.1,42.1,0,0,1-6.86,21.83,126.77,126.77,0,0,0-10.1,18.88,8.43,8.43,0,0,0-.45,4.8C650.67,117.14,651.07,118.8,651.45,120.62Z" transform="translate(-150)"/></svg>